<mxfile host="app.diagrams.net" modified="2022-03-14T15:56:56.958Z" agent="5.0 (Windows NT 10.0; Win64; x64) AppleWebKit/537.36 (KHTML, like Gecko) Chrome/98.0.4758.82 Safari/537.36" etag="uoLkmRi4-P_QgVHPFHYd" version="17.1.2" type="github" pages="5">
  <diagram id="C5RBs43oDa-KdzZeNtuy" name="Page de connexion">
    <mxGraphModel dx="1730" dy="912" grid="1" gridSize="10" guides="1" tooltips="1" connect="1" arrows="1" fold="1" page="1" pageScale="1" pageWidth="827" pageHeight="1169" math="0" shadow="0">
      <root>
        <mxCell id="WIyWlLk6GJQsqaUBKTNV-0" />
        <mxCell id="WIyWlLk6GJQsqaUBKTNV-1" parent="WIyWlLk6GJQsqaUBKTNV-0" />
        <mxCell id="WIyWlLk6GJQsqaUBKTNV-3" value="&lt;b&gt;&lt;font style=&quot;font-size: 24px&quot;&gt;Cas d&#39;usage 1&lt;/font&gt;&lt;/b&gt;" style="rounded=1;whiteSpace=wrap;html=1;fontSize=12;glass=0;strokeWidth=1;shadow=0;" parent="WIyWlLk6GJQsqaUBKTNV-1" vertex="1">
          <mxGeometry x="80" y="20" width="220" height="40" as="geometry" />
        </mxCell>
        <mxCell id="6urJBGMZWyxlTxzxxhEN-5" style="edgeStyle=orthogonalEdgeStyle;rounded=0;orthogonalLoop=1;jettySize=auto;html=1;exitX=0.5;exitY=1;exitDx=0;exitDy=0;fontSize=24;" edge="1" parent="WIyWlLk6GJQsqaUBKTNV-1" source="WIyWlLk6GJQsqaUBKTNV-6" target="WIyWlLk6GJQsqaUBKTNV-11">
          <mxGeometry relative="1" as="geometry" />
        </mxCell>
        <mxCell id="6urJBGMZWyxlTxzxxhEN-10" style="edgeStyle=orthogonalEdgeStyle;rounded=0;orthogonalLoop=1;jettySize=auto;html=1;exitX=1;exitY=0.5;exitDx=0;exitDy=0;entryX=0;entryY=0.5;entryDx=0;entryDy=0;fontSize=12;" edge="1" parent="WIyWlLk6GJQsqaUBKTNV-1" source="WIyWlLk6GJQsqaUBKTNV-6" target="WIyWlLk6GJQsqaUBKTNV-7">
          <mxGeometry relative="1" as="geometry" />
        </mxCell>
        <mxCell id="WIyWlLk6GJQsqaUBKTNV-6" value="L&#39;email est-il&lt;br&gt;bien au&lt;br&gt;bon format ?" style="rhombus;whiteSpace=wrap;html=1;shadow=0;fontFamily=Helvetica;fontSize=12;align=center;strokeWidth=1;spacing=6;spacingTop=-4;" parent="WIyWlLk6GJQsqaUBKTNV-1" vertex="1">
          <mxGeometry x="240" y="75" width="140" height="110" as="geometry" />
        </mxCell>
        <mxCell id="6urJBGMZWyxlTxzxxhEN-2" style="edgeStyle=orthogonalEdgeStyle;rounded=0;orthogonalLoop=1;jettySize=auto;html=1;exitX=1;exitY=0.5;exitDx=0;exitDy=0;fontSize=24;" edge="1" parent="WIyWlLk6GJQsqaUBKTNV-1" source="WIyWlLk6GJQsqaUBKTNV-7" target="WIyWlLk6GJQsqaUBKTNV-12">
          <mxGeometry relative="1" as="geometry" />
        </mxCell>
        <mxCell id="WIyWlLk6GJQsqaUBKTNV-7" value="Oui" style="rounded=1;whiteSpace=wrap;html=1;fontSize=12;glass=0;strokeWidth=1;shadow=0;" parent="WIyWlLk6GJQsqaUBKTNV-1" vertex="1">
          <mxGeometry x="430" y="110" width="120" height="40" as="geometry" />
        </mxCell>
        <mxCell id="6urJBGMZWyxlTxzxxhEN-13" style="edgeStyle=orthogonalEdgeStyle;rounded=0;orthogonalLoop=1;jettySize=auto;html=1;exitX=0;exitY=0.5;exitDx=0;exitDy=0;entryX=1;entryY=0.5;entryDx=0;entryDy=0;fontSize=12;" edge="1" parent="WIyWlLk6GJQsqaUBKTNV-1" source="WIyWlLk6GJQsqaUBKTNV-11" target="6urJBGMZWyxlTxzxxhEN-12">
          <mxGeometry relative="1" as="geometry" />
        </mxCell>
        <mxCell id="WIyWlLk6GJQsqaUBKTNV-11" value="Afficher le message d&#39;alerte &quot;format incorrect&quot;" style="rounded=1;whiteSpace=wrap;html=1;fontSize=12;glass=0;strokeWidth=1;shadow=0;" parent="WIyWlLk6GJQsqaUBKTNV-1" vertex="1">
          <mxGeometry x="240" y="225" width="140" height="40" as="geometry" />
        </mxCell>
        <mxCell id="WIyWlLk6GJQsqaUBKTNV-12" value="Ne pas afficher le message d&#39;alerte" style="rounded=1;whiteSpace=wrap;html=1;fontSize=12;glass=0;strokeWidth=1;shadow=0;" parent="WIyWlLk6GJQsqaUBKTNV-1" vertex="1">
          <mxGeometry x="600" y="110" width="120" height="40" as="geometry" />
        </mxCell>
        <mxCell id="6urJBGMZWyxlTxzxxhEN-1" style="edgeStyle=orthogonalEdgeStyle;rounded=0;orthogonalLoop=1;jettySize=auto;html=1;exitX=1;exitY=0.5;exitDx=0;exitDy=0;entryX=0;entryY=0.5;entryDx=0;entryDy=0;" edge="1" parent="WIyWlLk6GJQsqaUBKTNV-1" source="6urJBGMZWyxlTxzxxhEN-0" target="WIyWlLk6GJQsqaUBKTNV-6">
          <mxGeometry relative="1" as="geometry" />
        </mxCell>
        <mxCell id="6urJBGMZWyxlTxzxxhEN-0" value="Des caractères sont entrés dans l&#39;input" style="rounded=1;whiteSpace=wrap;html=1;" vertex="1" parent="WIyWlLk6GJQsqaUBKTNV-1">
          <mxGeometry x="80" y="100" width="120" height="60" as="geometry" />
        </mxCell>
        <mxCell id="6urJBGMZWyxlTxzxxhEN-8" value="Oui" style="text;html=1;strokeColor=none;fillColor=none;align=center;verticalAlign=middle;whiteSpace=wrap;rounded=0;fontSize=12;" vertex="1" parent="WIyWlLk6GJQsqaUBKTNV-1">
          <mxGeometry x="310" y="191" width="30" height="20" as="geometry" />
        </mxCell>
        <mxCell id="6urJBGMZWyxlTxzxxhEN-11" value="Non" style="text;html=1;strokeColor=none;fillColor=none;align=center;verticalAlign=middle;whiteSpace=wrap;rounded=0;fontSize=12;" vertex="1" parent="WIyWlLk6GJQsqaUBKTNV-1">
          <mxGeometry x="390" y="112" width="30" height="20" as="geometry" />
        </mxCell>
        <mxCell id="6urJBGMZWyxlTxzxxhEN-14" style="edgeStyle=orthogonalEdgeStyle;rounded=0;orthogonalLoop=1;jettySize=auto;html=1;exitX=0.5;exitY=0;exitDx=0;exitDy=0;entryX=0.5;entryY=1;entryDx=0;entryDy=0;fontSize=12;" edge="1" parent="WIyWlLk6GJQsqaUBKTNV-1" source="6urJBGMZWyxlTxzxxhEN-12" target="6urJBGMZWyxlTxzxxhEN-0">
          <mxGeometry relative="1" as="geometry" />
        </mxCell>
        <mxCell id="6urJBGMZWyxlTxzxxhEN-12" value="L&#39;utilisateur modifie&lt;br&gt;l&#39;input" style="rhombus;whiteSpace=wrap;html=1;fontSize=12;" vertex="1" parent="WIyWlLk6GJQsqaUBKTNV-1">
          <mxGeometry x="90" y="200" width="100" height="90" as="geometry" />
        </mxCell>
        <mxCell id="6urJBGMZWyxlTxzxxhEN-15" value="&lt;b&gt;&lt;font style=&quot;font-size: 24px&quot;&gt;Cas d&#39;usage 2&lt;/font&gt;&lt;/b&gt;" style="rounded=1;whiteSpace=wrap;html=1;fontSize=12;glass=0;strokeWidth=1;shadow=0;" vertex="1" parent="WIyWlLk6GJQsqaUBKTNV-1">
          <mxGeometry x="80" y="340" width="220" height="40" as="geometry" />
        </mxCell>
        <mxCell id="6urJBGMZWyxlTxzxxhEN-18" style="edgeStyle=orthogonalEdgeStyle;rounded=0;orthogonalLoop=1;jettySize=auto;html=1;exitX=1;exitY=0.5;exitDx=0;exitDy=0;entryX=0;entryY=0.5;entryDx=0;entryDy=0;fontSize=12;" edge="1" parent="WIyWlLk6GJQsqaUBKTNV-1" source="6urJBGMZWyxlTxzxxhEN-16" target="6urJBGMZWyxlTxzxxhEN-17">
          <mxGeometry relative="1" as="geometry" />
        </mxCell>
        <mxCell id="6urJBGMZWyxlTxzxxhEN-16" value="L&#39;utilisateur clique sur &quot;se connecter&quot;" style="rounded=1;whiteSpace=wrap;html=1;" vertex="1" parent="WIyWlLk6GJQsqaUBKTNV-1">
          <mxGeometry x="80" y="430" width="120" height="60" as="geometry" />
        </mxCell>
        <mxCell id="6urJBGMZWyxlTxzxxhEN-20" style="edgeStyle=orthogonalEdgeStyle;rounded=0;orthogonalLoop=1;jettySize=auto;html=1;exitX=1;exitY=0.5;exitDx=0;exitDy=0;entryX=0;entryY=0.5;entryDx=0;entryDy=0;fontSize=12;" edge="1" parent="WIyWlLk6GJQsqaUBKTNV-1" source="6urJBGMZWyxlTxzxxhEN-17" target="6urJBGMZWyxlTxzxxhEN-19">
          <mxGeometry relative="1" as="geometry" />
        </mxCell>
        <mxCell id="6urJBGMZWyxlTxzxxhEN-27" style="edgeStyle=orthogonalEdgeStyle;rounded=0;orthogonalLoop=1;jettySize=auto;html=1;exitX=0.5;exitY=1;exitDx=0;exitDy=0;entryX=0;entryY=0.5;entryDx=0;entryDy=0;fontSize=12;" edge="1" parent="WIyWlLk6GJQsqaUBKTNV-1" source="6urJBGMZWyxlTxzxxhEN-17" target="6urJBGMZWyxlTxzxxhEN-25">
          <mxGeometry relative="1" as="geometry" />
        </mxCell>
        <mxCell id="6urJBGMZWyxlTxzxxhEN-17" value="L&#39;input&lt;br&gt;contenant l&#39;email&lt;br&gt;est-il non vide et&lt;br&gt;correspond-t-il à l&#39;email&lt;br&gt;enregistré pour&lt;br&gt;ce profil&amp;nbsp;?" style="rhombus;whiteSpace=wrap;html=1;shadow=0;fontFamily=Helvetica;fontSize=12;align=center;strokeWidth=1;spacing=6;spacingTop=-4;" vertex="1" parent="WIyWlLk6GJQsqaUBKTNV-1">
          <mxGeometry x="240" y="371.25" width="202.5" height="177.5" as="geometry" />
        </mxCell>
        <mxCell id="6urJBGMZWyxlTxzxxhEN-23" style="edgeStyle=orthogonalEdgeStyle;rounded=0;orthogonalLoop=1;jettySize=auto;html=1;exitX=1;exitY=0.5;exitDx=0;exitDy=0;fontSize=12;" edge="1" parent="WIyWlLk6GJQsqaUBKTNV-1" source="6urJBGMZWyxlTxzxxhEN-19" target="6urJBGMZWyxlTxzxxhEN-22">
          <mxGeometry relative="1" as="geometry" />
        </mxCell>
        <mxCell id="6urJBGMZWyxlTxzxxhEN-26" style="edgeStyle=orthogonalEdgeStyle;rounded=0;orthogonalLoop=1;jettySize=auto;html=1;exitX=0.5;exitY=1;exitDx=0;exitDy=0;fontSize=12;entryX=1;entryY=0.5;entryDx=0;entryDy=0;" edge="1" parent="WIyWlLk6GJQsqaUBKTNV-1" source="6urJBGMZWyxlTxzxxhEN-19" target="6urJBGMZWyxlTxzxxhEN-25">
          <mxGeometry relative="1" as="geometry">
            <mxPoint x="605" y="700" as="targetPoint" />
          </mxGeometry>
        </mxCell>
        <mxCell id="6urJBGMZWyxlTxzxxhEN-19" value="L&#39;input&lt;br&gt;contenant le mot de passe&lt;br&gt;est-il non vide et&lt;br&gt;correspond-t-il au mot de passe enregistré pour ce profil ?" style="rhombus;whiteSpace=wrap;html=1;shadow=0;fontFamily=Helvetica;fontSize=12;align=center;strokeWidth=1;spacing=6;spacingTop=-4;" vertex="1" parent="WIyWlLk6GJQsqaUBKTNV-1">
          <mxGeometry x="490" y="366.25" width="230" height="187.5" as="geometry" />
        </mxCell>
        <mxCell id="6urJBGMZWyxlTxzxxhEN-21" value="Oui" style="text;html=1;strokeColor=none;fillColor=none;align=center;verticalAlign=middle;whiteSpace=wrap;rounded=0;fontSize=12;" vertex="1" parent="WIyWlLk6GJQsqaUBKTNV-1">
          <mxGeometry x="446.5" y="440" width="30" height="20" as="geometry" />
        </mxCell>
        <mxCell id="6urJBGMZWyxlTxzxxhEN-22" value="Connexion réussie" style="rounded=1;whiteSpace=wrap;html=1;" vertex="1" parent="WIyWlLk6GJQsqaUBKTNV-1">
          <mxGeometry x="700" y="600" width="120" height="60" as="geometry" />
        </mxCell>
        <mxCell id="6urJBGMZWyxlTxzxxhEN-24" value="Oui" style="text;html=1;strokeColor=none;fillColor=none;align=center;verticalAlign=middle;whiteSpace=wrap;rounded=0;fontSize=12;" vertex="1" parent="WIyWlLk6GJQsqaUBKTNV-1">
          <mxGeometry x="725" y="440" width="30" height="20" as="geometry" />
        </mxCell>
        <mxCell id="6urJBGMZWyxlTxzxxhEN-31" style="edgeStyle=orthogonalEdgeStyle;rounded=0;orthogonalLoop=1;jettySize=auto;html=1;exitX=0.5;exitY=1;exitDx=0;exitDy=0;fontSize=12;" edge="1" parent="WIyWlLk6GJQsqaUBKTNV-1" source="6urJBGMZWyxlTxzxxhEN-25" target="6urJBGMZWyxlTxzxxhEN-30">
          <mxGeometry relative="1" as="geometry" />
        </mxCell>
        <mxCell id="6urJBGMZWyxlTxzxxhEN-25" value="Afficher un message indiquant que l&#39;email et/ou le mot de passe sont incorrects" style="rounded=1;whiteSpace=wrap;html=1;" vertex="1" parent="WIyWlLk6GJQsqaUBKTNV-1">
          <mxGeometry x="401.5" y="640" width="120" height="60" as="geometry" />
        </mxCell>
        <mxCell id="6urJBGMZWyxlTxzxxhEN-28" value="Non" style="text;html=1;strokeColor=none;fillColor=none;align=center;verticalAlign=middle;whiteSpace=wrap;rounded=0;fontSize=12;" vertex="1" parent="WIyWlLk6GJQsqaUBKTNV-1">
          <mxGeometry x="313" y="585" width="30" height="20" as="geometry" />
        </mxCell>
        <mxCell id="6urJBGMZWyxlTxzxxhEN-29" value="Non" style="text;html=1;strokeColor=none;fillColor=none;align=center;verticalAlign=middle;whiteSpace=wrap;rounded=0;fontSize=12;" vertex="1" parent="WIyWlLk6GJQsqaUBKTNV-1">
          <mxGeometry x="603" y="585" width="30" height="20" as="geometry" />
        </mxCell>
        <mxCell id="6urJBGMZWyxlTxzxxhEN-32" style="edgeStyle=orthogonalEdgeStyle;rounded=0;orthogonalLoop=1;jettySize=auto;html=1;exitX=0;exitY=0.5;exitDx=0;exitDy=0;entryX=0.5;entryY=1;entryDx=0;entryDy=0;fontSize=12;" edge="1" parent="WIyWlLk6GJQsqaUBKTNV-1" source="6urJBGMZWyxlTxzxxhEN-30" target="6urJBGMZWyxlTxzxxhEN-16">
          <mxGeometry relative="1" as="geometry" />
        </mxCell>
        <mxCell id="6urJBGMZWyxlTxzxxhEN-30" value="L&#39;utilisateur modifie&lt;br&gt;l&#39;un et/ou les inputs concernés" style="rhombus;whiteSpace=wrap;html=1;fontSize=12;" vertex="1" parent="WIyWlLk6GJQsqaUBKTNV-1">
          <mxGeometry x="382.25" y="740" width="158.5" height="150" as="geometry" />
        </mxCell>
        <mxCell id="6urJBGMZWyxlTxzxxhEN-33" value="&lt;b&gt;&lt;font style=&quot;font-size: 24px&quot;&gt;Cas d&#39;usage 3&lt;/font&gt;&lt;/b&gt;" style="rounded=1;whiteSpace=wrap;html=1;fontSize=12;glass=0;strokeWidth=1;shadow=0;" vertex="1" parent="WIyWlLk6GJQsqaUBKTNV-1">
          <mxGeometry x="80" y="920" width="220" height="40" as="geometry" />
        </mxCell>
        <mxCell id="6urJBGMZWyxlTxzxxhEN-36" style="edgeStyle=orthogonalEdgeStyle;rounded=0;orthogonalLoop=1;jettySize=auto;html=1;exitX=1;exitY=0.5;exitDx=0;exitDy=0;fontSize=12;" edge="1" parent="WIyWlLk6GJQsqaUBKTNV-1" source="6urJBGMZWyxlTxzxxhEN-34" target="6urJBGMZWyxlTxzxxhEN-35">
          <mxGeometry relative="1" as="geometry" />
        </mxCell>
        <mxCell id="6urJBGMZWyxlTxzxxhEN-34" value="L&#39;utilisateur clique sur &quot;Créer un compte&quot;" style="rounded=1;whiteSpace=wrap;html=1;" vertex="1" parent="WIyWlLk6GJQsqaUBKTNV-1">
          <mxGeometry x="80" y="1020" width="120" height="60" as="geometry" />
        </mxCell>
        <mxCell id="6urJBGMZWyxlTxzxxhEN-38" style="edgeStyle=orthogonalEdgeStyle;rounded=0;orthogonalLoop=1;jettySize=auto;html=1;exitX=1;exitY=0.5;exitDx=0;exitDy=0;entryX=0;entryY=0.5;entryDx=0;entryDy=0;fontSize=12;" edge="1" parent="WIyWlLk6GJQsqaUBKTNV-1" source="6urJBGMZWyxlTxzxxhEN-35" target="6urJBGMZWyxlTxzxxhEN-37">
          <mxGeometry relative="1" as="geometry" />
        </mxCell>
        <mxCell id="6urJBGMZWyxlTxzxxhEN-35" value="Afficher la page&lt;br&gt;demandant les informations &lt;br&gt;personnelles nécessaires &lt;br&gt;à l&#39;inscription" style="rhombus;whiteSpace=wrap;html=1;fontSize=12;" vertex="1" parent="WIyWlLk6GJQsqaUBKTNV-1">
          <mxGeometry x="250" y="962.5" width="198.5" height="175" as="geometry" />
        </mxCell>
        <mxCell id="6urJBGMZWyxlTxzxxhEN-37" value="L&#39;utilisateur remplit le formulaire" style="rounded=1;whiteSpace=wrap;html=1;" vertex="1" parent="WIyWlLk6GJQsqaUBKTNV-1">
          <mxGeometry x="500" y="1020" width="120" height="60" as="geometry" />
        </mxCell>
        <mxCell id="6urJBGMZWyxlTxzxxhEN-39" value="&lt;b&gt;&lt;font style=&quot;font-size: 24px&quot;&gt;Cas d&#39;usage 4&lt;/font&gt;&lt;/b&gt;" style="rounded=1;whiteSpace=wrap;html=1;fontSize=12;glass=0;strokeWidth=1;shadow=0;" vertex="1" parent="WIyWlLk6GJQsqaUBKTNV-1">
          <mxGeometry x="80" y="1180" width="220" height="40" as="geometry" />
        </mxCell>
        <mxCell id="6urJBGMZWyxlTxzxxhEN-42" style="edgeStyle=orthogonalEdgeStyle;rounded=0;orthogonalLoop=1;jettySize=auto;html=1;exitX=1;exitY=0.5;exitDx=0;exitDy=0;entryX=0;entryY=0.5;entryDx=0;entryDy=0;fontSize=12;" edge="1" parent="WIyWlLk6GJQsqaUBKTNV-1" source="6urJBGMZWyxlTxzxxhEN-40" target="6urJBGMZWyxlTxzxxhEN-41">
          <mxGeometry relative="1" as="geometry" />
        </mxCell>
        <mxCell id="6urJBGMZWyxlTxzxxhEN-40" value="L&#39;utilisateur clique sur &quot;mot de passe oublié&quot;" style="rounded=1;whiteSpace=wrap;html=1;" vertex="1" parent="WIyWlLk6GJQsqaUBKTNV-1">
          <mxGeometry x="80" y="1280" width="120" height="60" as="geometry" />
        </mxCell>
        <mxCell id="6urJBGMZWyxlTxzxxhEN-47" style="edgeStyle=orthogonalEdgeStyle;rounded=0;orthogonalLoop=1;jettySize=auto;html=1;exitX=1;exitY=0.5;exitDx=0;exitDy=0;fontSize=12;" edge="1" parent="WIyWlLk6GJQsqaUBKTNV-1" source="6urJBGMZWyxlTxzxxhEN-41" target="6urJBGMZWyxlTxzxxhEN-44">
          <mxGeometry relative="1" as="geometry" />
        </mxCell>
        <mxCell id="6urJBGMZWyxlTxzxxhEN-41" value="Affiche la page de&lt;br&gt;récupération de mot de passe demandant de donner l&#39;adresse email du profil" style="rhombus;whiteSpace=wrap;html=1;fontSize=12;" vertex="1" parent="WIyWlLk6GJQsqaUBKTNV-1">
          <mxGeometry x="260" y="1222.5" width="198.5" height="175" as="geometry" />
        </mxCell>
        <mxCell id="6urJBGMZWyxlTxzxxhEN-48" style="edgeStyle=orthogonalEdgeStyle;rounded=0;orthogonalLoop=1;jettySize=auto;html=1;exitX=0.5;exitY=1;exitDx=0;exitDy=0;fontSize=12;" edge="1" parent="WIyWlLk6GJQsqaUBKTNV-1" source="6urJBGMZWyxlTxzxxhEN-44" target="6urJBGMZWyxlTxzxxhEN-46">
          <mxGeometry relative="1" as="geometry" />
        </mxCell>
        <mxCell id="6urJBGMZWyxlTxzxxhEN-44" value="L&#39;utilisateur écrit son email" style="rounded=1;whiteSpace=wrap;html=1;" vertex="1" parent="WIyWlLk6GJQsqaUBKTNV-1">
          <mxGeometry x="510" y="1280" width="120" height="60" as="geometry" />
        </mxCell>
        <mxCell id="6urJBGMZWyxlTxzxxhEN-50" style="edgeStyle=orthogonalEdgeStyle;rounded=0;orthogonalLoop=1;jettySize=auto;html=1;exitX=0;exitY=0.5;exitDx=0;exitDy=0;entryX=1;entryY=0.5;entryDx=0;entryDy=0;fontSize=12;" edge="1" parent="WIyWlLk6GJQsqaUBKTNV-1" source="6urJBGMZWyxlTxzxxhEN-46" target="6urJBGMZWyxlTxzxxhEN-49">
          <mxGeometry relative="1" as="geometry" />
        </mxCell>
        <mxCell id="6urJBGMZWyxlTxzxxhEN-55" style="edgeStyle=orthogonalEdgeStyle;rounded=0;orthogonalLoop=1;jettySize=auto;html=1;exitX=0.5;exitY=1;exitDx=0;exitDy=0;entryX=0.5;entryY=0;entryDx=0;entryDy=0;fontSize=12;" edge="1" parent="WIyWlLk6GJQsqaUBKTNV-1" source="6urJBGMZWyxlTxzxxhEN-46" target="6urJBGMZWyxlTxzxxhEN-54">
          <mxGeometry relative="1" as="geometry" />
        </mxCell>
        <mxCell id="6urJBGMZWyxlTxzxxhEN-46" value="Vérifier si l&#39;email est&amp;nbsp;&lt;br&gt;présent dans la base de&lt;br&gt;données" style="rhombus;whiteSpace=wrap;html=1;fontSize=12;" vertex="1" parent="WIyWlLk6GJQsqaUBKTNV-1">
          <mxGeometry x="485.37" y="1430" width="169.25" height="130" as="geometry" />
        </mxCell>
        <mxCell id="6urJBGMZWyxlTxzxxhEN-49" value="L&#39;utilisateur reçoit un email pour réinitialiser son mot de passe" style="rounded=1;whiteSpace=wrap;html=1;" vertex="1" parent="WIyWlLk6GJQsqaUBKTNV-1">
          <mxGeometry x="322.5" y="1465" width="120" height="60" as="geometry" />
        </mxCell>
        <mxCell id="6urJBGMZWyxlTxzxxhEN-51" value="Oui" style="text;html=1;strokeColor=none;fillColor=none;align=center;verticalAlign=middle;whiteSpace=wrap;rounded=0;fontSize=12;" vertex="1" parent="WIyWlLk6GJQsqaUBKTNV-1">
          <mxGeometry x="451.5" y="1476" width="30" height="20" as="geometry" />
        </mxCell>
        <mxCell id="6urJBGMZWyxlTxzxxhEN-53" value="Non" style="text;html=1;strokeColor=none;fillColor=none;align=center;verticalAlign=middle;whiteSpace=wrap;rounded=0;fontSize=12;" vertex="1" parent="WIyWlLk6GJQsqaUBKTNV-1">
          <mxGeometry x="573" y="1568" width="30" height="20" as="geometry" />
        </mxCell>
        <mxCell id="6urJBGMZWyxlTxzxxhEN-54" value="Afficher un message indiquant que l&#39;email n&#39;est pas dans la base de données" style="rounded=1;whiteSpace=wrap;html=1;" vertex="1" parent="WIyWlLk6GJQsqaUBKTNV-1">
          <mxGeometry x="510" y="1600" width="120" height="60" as="geometry" />
        </mxCell>
      </root>
    </mxGraphModel>
  </diagram>
  <diagram id="xLzza9aDwyXkkEniZzHm" name="Tableau de bord">
    <mxGraphModel dx="1597" dy="842" grid="1" gridSize="10" guides="1" tooltips="1" connect="1" arrows="1" fold="1" page="1" pageScale="1" pageWidth="827" pageHeight="1169" math="0" shadow="0">
      <root>
        <mxCell id="dXVPnkUjm1idQHvKVAn5-0" />
        <mxCell id="dXVPnkUjm1idQHvKVAn5-1" parent="dXVPnkUjm1idQHvKVAn5-0" />
        <mxCell id="TUu4BRl_gsgVaNEwL_c2-0" value="&lt;b&gt;&lt;font style=&quot;font-size: 24px&quot;&gt;Cas d&#39;usage 1&lt;/font&gt;&lt;/b&gt;" style="rounded=1;whiteSpace=wrap;html=1;fontSize=12;glass=0;strokeWidth=1;shadow=0;" vertex="1" parent="dXVPnkUjm1idQHvKVAn5-1">
          <mxGeometry x="80" y="40" width="220" height="40" as="geometry" />
        </mxCell>
        <mxCell id="TUu4BRl_gsgVaNEwL_c2-3" style="edgeStyle=orthogonalEdgeStyle;rounded=0;orthogonalLoop=1;jettySize=auto;html=1;exitX=0.5;exitY=1;exitDx=0;exitDy=0;entryX=0.5;entryY=0;entryDx=0;entryDy=0;fontSize=12;" edge="1" parent="dXVPnkUjm1idQHvKVAn5-1" source="TUu4BRl_gsgVaNEwL_c2-1" target="TUu4BRl_gsgVaNEwL_c2-2">
          <mxGeometry relative="1" as="geometry" />
        </mxCell>
        <mxCell id="TUu4BRl_gsgVaNEwL_c2-10" style="edgeStyle=orthogonalEdgeStyle;rounded=0;orthogonalLoop=1;jettySize=auto;html=1;exitX=1;exitY=0.5;exitDx=0;exitDy=0;entryX=0;entryY=0.5;entryDx=0;entryDy=0;fontSize=12;" edge="1" parent="dXVPnkUjm1idQHvKVAn5-1" source="TUu4BRl_gsgVaNEwL_c2-1" target="TUu4BRl_gsgVaNEwL_c2-4">
          <mxGeometry relative="1" as="geometry" />
        </mxCell>
        <mxCell id="TUu4BRl_gsgVaNEwL_c2-1" value="Si&lt;br&gt;connexion au profil réussie" style="rhombus;whiteSpace=wrap;html=1;fontSize=12;" vertex="1" parent="dXVPnkUjm1idQHvKVAn5-1">
          <mxGeometry x="110" y="120" width="120" height="110" as="geometry" />
        </mxCell>
        <mxCell id="TUu4BRl_gsgVaNEwL_c2-2" value="Afficher page 404 et demander de revenir à la page de connexion" style="rounded=1;whiteSpace=wrap;html=1;fontSize=12;" vertex="1" parent="dXVPnkUjm1idQHvKVAn5-1">
          <mxGeometry x="110" y="280" width="120" height="60" as="geometry" />
        </mxCell>
        <mxCell id="TUu4BRl_gsgVaNEwL_c2-11" style="edgeStyle=orthogonalEdgeStyle;rounded=0;orthogonalLoop=1;jettySize=auto;html=1;exitX=1;exitY=0.5;exitDx=0;exitDy=0;entryX=0;entryY=0.5;entryDx=0;entryDy=0;fontSize=12;" edge="1" parent="dXVPnkUjm1idQHvKVAn5-1" source="TUu4BRl_gsgVaNEwL_c2-4" target="TUu4BRl_gsgVaNEwL_c2-5">
          <mxGeometry relative="1" as="geometry" />
        </mxCell>
        <mxCell id="TUu4BRl_gsgVaNEwL_c2-4" value="Récupérer les données liées au profil dans un tableau pour les afficher" style="rounded=1;whiteSpace=wrap;html=1;fontSize=12;" vertex="1" parent="dXVPnkUjm1idQHvKVAn5-1">
          <mxGeometry x="270" y="145" width="120" height="60" as="geometry" />
        </mxCell>
        <mxCell id="TUu4BRl_gsgVaNEwL_c2-8" style="edgeStyle=orthogonalEdgeStyle;rounded=0;orthogonalLoop=1;jettySize=auto;html=1;exitX=0.5;exitY=0;exitDx=0;exitDy=0;entryX=0;entryY=0.5;entryDx=0;entryDy=0;fontSize=12;" edge="1" parent="dXVPnkUjm1idQHvKVAn5-1" source="TUu4BRl_gsgVaNEwL_c2-5" target="TUu4BRl_gsgVaNEwL_c2-6">
          <mxGeometry relative="1" as="geometry" />
        </mxCell>
        <mxCell id="TUu4BRl_gsgVaNEwL_c2-9" style="edgeStyle=orthogonalEdgeStyle;rounded=0;orthogonalLoop=1;jettySize=auto;html=1;exitX=1;exitY=0.5;exitDx=0;exitDy=0;entryX=0;entryY=0.5;entryDx=0;entryDy=0;fontSize=12;" edge="1" parent="dXVPnkUjm1idQHvKVAn5-1" source="TUu4BRl_gsgVaNEwL_c2-5" target="TUu4BRl_gsgVaNEwL_c2-7">
          <mxGeometry relative="1" as="geometry" />
        </mxCell>
        <mxCell id="TUu4BRl_gsgVaNEwL_c2-5" value="Si&lt;br&gt;messages non lus" style="rhombus;whiteSpace=wrap;html=1;fontSize=12;" vertex="1" parent="dXVPnkUjm1idQHvKVAn5-1">
          <mxGeometry x="450" y="135" width="80" height="80" as="geometry" />
        </mxCell>
        <mxCell id="TUu4BRl_gsgVaNEwL_c2-6" value="Afficher &quot;0 messages non lus&quot;" style="rounded=1;whiteSpace=wrap;html=1;fontSize=12;" vertex="1" parent="dXVPnkUjm1idQHvKVAn5-1">
          <mxGeometry x="590" y="50" width="120" height="60" as="geometry" />
        </mxCell>
        <mxCell id="TUu4BRl_gsgVaNEwL_c2-7" value="Mettre à jour le message avec le nombre de messages non lus" style="rounded=1;whiteSpace=wrap;html=1;fontSize=12;" vertex="1" parent="dXVPnkUjm1idQHvKVAn5-1">
          <mxGeometry x="590" y="145" width="120" height="60" as="geometry" />
        </mxCell>
      </root>
    </mxGraphModel>
  </diagram>
  <diagram id="o13HLT__S3dmV1xBeqiv" name="Interface de tchat">
    <mxGraphModel dx="1038" dy="547" grid="1" gridSize="10" guides="1" tooltips="1" connect="1" arrows="1" fold="1" page="1" pageScale="1" pageWidth="827" pageHeight="1169" math="0" shadow="0">
      <root>
        <mxCell id="_nYyIv013TXHIx_sjPUl-0" />
        <mxCell id="_nYyIv013TXHIx_sjPUl-1" parent="_nYyIv013TXHIx_sjPUl-0" />
      </root>
    </mxGraphModel>
  </diagram>
  <diagram id="Jr3poC1PxCbzpREhg4ls" name="Page de calendrier">
    <mxGraphModel dx="1038" dy="547" grid="1" gridSize="10" guides="1" tooltips="1" connect="1" arrows="1" fold="1" page="1" pageScale="1" pageWidth="827" pageHeight="1169" math="0" shadow="0">
      <root>
        <mxCell id="Zv1ujTboXCkUcZ-0_XO2-0" />
        <mxCell id="Zv1ujTboXCkUcZ-0_XO2-1" parent="Zv1ujTboXCkUcZ-0_XO2-0" />
      </root>
    </mxGraphModel>
  </diagram>
  <diagram id="GMki9UCLT7qbNosqOsEp" name="Page de gestion des tâches">
    <mxGraphModel dx="1038" dy="547" grid="1" gridSize="10" guides="1" tooltips="1" connect="1" arrows="1" fold="1" page="1" pageScale="1" pageWidth="827" pageHeight="1169" math="0" shadow="0">
      <root>
        <mxCell id="7JiiWyrp0ukESxJatfNU-0" />
        <mxCell id="7JiiWyrp0ukESxJatfNU-1" parent="7JiiWyrp0ukESxJatfNU-0" />
      </root>
    </mxGraphModel>
  </diagram>
</mxfile>
